<?xml version="1.0" encoding="utf-8"?>
<svg version="1.1" xmlns:xlink="http://www.w3.org/1999/xlink" width="30px" height="17px" xmlns="http://www.w3.org/2000/svg">
  <g transform="matrix(1 0 0 1 -174 -533 )">
    <path d="M 1.52590607000264 16.9702573036222  C 1.52738101030699 16.9702573036222  1.52885594966026 16.9702548690783  1.53033088235294 16.97025  C 1.89603935609013 16.9706381953665  2.24682173849536 16.8212585955806  2.50505514705882 16.5551666666667  L 15.1778492647059 3.53316666666667  L 27.4880514705882 16.1825833333333  C 27.746564418635 16.4482197492818  28.0971832181174 16.5974527338469  28.4627757352941 16.5974527338469  C 29.2240827415482 16.5974527338469  29.8412440100153 15.9632852437598  29.8412440100153 15.181  C 29.8412440100153 14.8053333779055  29.6960129480467 14.4450530826151  29.4375 14.1794166666667  L 16.1525735294118 0.528416666666668  C 15.8939775866605 0.262399189040706  15.5430734119013 0.112927236744325  15.1771599264706 0.112927236744325  C 14.8112464410399 0.112927236744325  14.4603422662807 0.262399189040706  14.2017463235294 0.528416666666668  L 0.554227941176473 14.552  C 0.294577748243996 14.817593599555  0.148608275884991 15.1785436702987  0.148608275884991 15.5550073036222  C 0.148608275884991 16.3366282958202  0.765245502335872 16.9702573036222  1.52590607000264 16.9702573036222  Z " fill-rule="nonzero" fill="#333333" stroke="none" transform="matrix(1 0 0 1 174 533 )" />
  </g>
</svg>