<?xml version="1.0" encoding="utf-8"?>
<svg version="1.1" xmlns:xlink="http://www.w3.org/1999/xlink" width="30px" height="17px" xmlns="http://www.w3.org/2000/svg">
  <g transform="matrix(1 0 0 1 -678 -530 )">
    <path d="M 29.4375 14.1794166666667  L 16.1539522058824 0.528416666666666  C 15.8953562631311 0.262399189040703  15.5444520883719 0.112927236744324  15.1785386029412 0.112927236744324  C 14.8126251175105 0.112927236744324  14.4617209427513 0.262399189040703  14.203125 0.528416666666666  L 0.55560661764706 14.552  C 0.297093669600336 14.8176364159485  0.15186260763174 15.1779167112389  0.15186260763174 15.5535833333333  C 0.15186260763174 16.3358685770931  0.769023876098857 16.9700360671802  1.53033088235294 16.9700360671802  C 1.89592339952967 16.9700360671802  2.2465421990121 16.8208030826151  2.50505514705882 16.5551666666667  L 15.1778492647059 3.53316666666667  L 27.4880514705882 16.1825833333333  C 27.746564418635 16.4482197492818  28.0971832181174 16.5974527338469  28.4627757352941 16.5974527338469  C 29.2240827415482 16.5974527338469  29.8412440100153 15.9632852437598  29.8412440100153 15.181  C 29.8412440100153 14.8053333779055  29.6960129480467 14.4450530826151  29.4375 14.1794166666667  Z " fill-rule="nonzero" fill="#fcfaf1" stroke="none" transform="matrix(1 0 0 1 678 530 )" />
  </g>
</svg>