<?xml version="1.0" encoding="utf-8"?>
<svg version="1.1" xmlns:xlink="http://www.w3.org/1999/xlink" width="25px" height="25px" xmlns="http://www.w3.org/2000/svg">
  <g transform="matrix(1 0 0 1 -305 -328 )">
    <path d="M 13.1599098989126 12.5  L 9.4515765875739 8.79166665566934  L 11.0439189189189 7.19932432432432  L 16.3445945945946 12.5  L 11.0439189189189 17.8006756756757  L 9.4515765875739 16.2083333443307  L 13.1599098989126 12.5  Z M 12.5 2.36486486486487  C 6.90251942739061 2.36486486486487  2.36486486486486 6.90251942739061  2.36486486486486 12.5  C 2.36486486486486 18.0974805726094  6.90251942739061 22.6351351351351  12.5 22.6351351351351  C 18.0974805726094 22.6351351351351  22.6351351351351 18.0974805726094  22.6351351351351 12.5  C 22.6351351351351 6.90251942739061  18.0974805726094 2.36486486486487  12.5 2.36486486486487  Z M 0.112612601285368 12.5  C 0.112612600955448 5.65878378345386  5.65878378345386 0.112612601615288  12.5 0.112612601285368  C 19.3412162162162 0.112612601615287  24.8873873983847 5.65878378378378  24.8873873987146 12.5  C 24.8873873990446 19.3412162162162  19.3412162162162 24.8873873983847  12.5 24.8873873987146  C 5.65878378378378 24.8873873990446  0.112612601615288 19.3412162165461  0.112612601285368 12.5  Z " fill-rule="nonzero" fill="#000b17" stroke="none" fill-opacity="0.87843137254902" transform="matrix(1 0 0 1 305 328 )" />
  </g>
</svg>