<?xml version="1.0" encoding="utf-8"?>
<svg version="1.1" xmlns:xlink="http://www.w3.org/1999/xlink" width="100px" height="100px" xmlns="http://www.w3.org/2000/svg">
  <g transform="matrix(1 0 0 1 -156 -363 )">
    <path d="M 100 50  C 100 78  78 100  50 100  C 22 100  0 78  0 50  C 0 22  22 0  50 0  C 78 0  100 22  100 50  Z M 11.3636363636364 50  C 11.3636363636364 71.6363636363636  28.3636363636364 88.6363636363636  50 88.6363636363636  C 71.6363636363636 88.6363636363636  88.6363636363636 71.6363636363636  88.6363636363636 50  C 88.6363636363636 28.3636363636364  71.6363636363636 11.3636363636364  50 11.3636363636364  C 28.3636363636364 11.3636363636364  11.3636363636364 28.3636363636364  11.3636363636364 50  Z " fill-rule="nonzero" fill="#cccccc" stroke="none" transform="matrix(1 0 0 1 156 363 )" />
  </g>
</svg>