<?xml version="1.0" encoding="utf-8"?>
<svg version="1.1" xmlns:xlink="http://www.w3.org/1999/xlink" width="100px" height="100px" xmlns="http://www.w3.org/2000/svg">
  <g transform="matrix(1 0 0 1 -156 -363 )">
    <path d="M 49.916017961846 6.59840851049218E-05  C 49.9440059638896 2.20000283816675E-05  49.9719999819409 0  49.916017961846 6.59840851049218E-05  Z M 88.6363636363636 50  C 88.6363636363636 46.3647160659792  88.1564566726797 42.8603158493268  87.255235845554 40  L 98.9457876391304 40  C 99.6373063831586 42.9086225336545  100 46.4048530463489  100 50  C 100 78  78 100  50 100  C 22 100  0 78  0 50  C 0 22.0280000180591  21.9560219716498 0.0440060283862855  50 6.5979908696208E-05  L 50 11.3636363636364  C 28.3636363636364 11.3636363636364  11.3636363636364 28.3636363636364  11.3636363636364 50  C 11.3636363636364 71.6363636363636  28.3636363636364 88.6363636363636  50 88.6363636363636  C 71.6363636363636 88.6363636363636  88.6363636363636 71.6363636363636  88.6363636363636 50  Z " fill-rule="nonzero" fill="#1a697f" stroke="none" transform="matrix(1 0 0 1 156 363 )" />
  </g>
</svg>