<?xml version="1.0" encoding="utf-8"?>
<svg version="1.1" xmlns:xlink="http://www.w3.org/1999/xlink" width="100px" height="96px" xmlns="http://www.w3.org/2000/svg">
  <g transform="matrix(1 0 0 1 -161 -55 )">
    <path d="M 0 46  C 0 25.551942577239  11.7330448367598 8.30380647359431  29 0.487227394656486  L 29 13.4041090239708  C 18.3215814369518 20.2135280397281  11.3636363636364 32.1579533280483  11.3636363636364 46  C 11.3636363636364 67.6363636363636  28.3636363636363 84.6363636363636  50 84.6363636363636  C 71.6363636363636 84.6363636363636  88.6363636363636 67.6363636363636  88.6363636363636 46  C 88.6363636363636 42.3647160659792  88.1564566726797 38.8603158493268  87.255235845554 36  L 98.9457876391304 36  C 99.6373063831586 38.9086225336545  100 42.4048530463489  100 46  C 100 74  78 96  50 96  C 22 96  0 74  0 46  Z " fill-rule="nonzero" fill="#1a697f" stroke="none" transform="matrix(1 0 0 1 161 55 )" />
  </g>
</svg>