<?xml version="1.0" encoding="utf-8"?>
<svg version="1.1" xmlns:xlink="http://www.w3.org/1999/xlink" width="100px" height="99px" xmlns="http://www.w3.org/2000/svg">
  <g transform="matrix(1 0 0 1 -343 -52 )">
    <path d="M 0 49  C 0 25.023507652301  16.1316174446223 5.44654733495358  38.4015185896153 0.315342083288698  L 44.4244266511342 10.7473248266829  C 25.5134040945072 13.3801803847473  11.3636363636364 29.2605764108913  11.3636363636364 49  C 11.3636363636364 70.6363636363636  28.3636363636363 87.6363636363636  50 87.6363636363636  C 71.6363636363636 87.6363636363636  88.6363636363636 70.6363636363636  88.6363636363636 49  C 88.6363636363636 45.3647160659792  88.1564566726797 41.8603158493268  87.255235845554 39  L 98.9457876391304 39  C 99.6373063831586 41.9086225336545  100 45.4048530463489  100 49  C 100 77  78 99  50 99  C 22 99  0 77  0 49  Z " fill-rule="nonzero" fill="#1a697f" stroke="none" transform="matrix(1 0 0 1 343 52 )" />
  </g>
</svg>